<?xml version="1.0" encoding="UTF-8" standalone="no"?>
<!DOCTYPE svg PUBLIC "-//W3C//DTD SVG 1.1//EN" "http://www.w3.org/Graphics/SVG/1.1/DTD/svg11.dtd">
<svg width="100%" height="100%" viewBox="0 0 205 40" version="1.1" xmlns="http://www.w3.org/2000/svg" xmlns:xlink="http://www.w3.org/1999/xlink" xml:space="preserve" xmlns:serif="http://www.serif.com/" style="fill-rule:evenodd;clip-rule:evenodd;stroke-linejoin:round;stroke-miterlimit:2;">
    <g>
        <g>
            <path d="M71.881,16.842L71.881,15.43L68.615,15.43L68.615,10.884L66.929,10.884L66.929,15.43L62.444,15.43L62.444,13.338C62.444,12.923 62.471,12.534 62.532,12.172C62.594,11.81 62.7,11.493 62.85,11.219C63,10.945 63.23,10.733 63.521,10.583C63.812,10.433 64.174,10.363 64.625,10.363C64.854,10.363 65.066,10.38 65.243,10.416C65.428,10.451 65.604,10.486 65.79,10.539L66.09,9.056C65.878,8.994 65.64,8.941 65.393,8.924C65.145,8.897 64.916,8.888 64.695,8.888C63.353,8.888 62.365,9.268 61.72,10.027C61.076,10.786 60.758,11.828 60.758,13.152L60.758,15.439L58.33,15.439L58.33,16.851L60.758,16.851L60.758,27.038L62.444,27.038L62.444,16.851L66.929,16.851L66.929,24.09C66.929,24.734 67.026,25.255 67.211,25.652C67.397,26.05 67.644,26.367 67.944,26.597C68.244,26.826 68.562,26.985 68.906,27.065C69.25,27.144 69.586,27.188 69.895,27.188C70.274,27.188 70.628,27.162 70.945,27.1C71.263,27.038 71.581,26.959 71.872,26.844L71.802,25.379C71.572,25.493 71.325,25.582 71.069,25.652C70.813,25.723 70.566,25.749 70.336,25.749C70.089,25.749 69.86,25.723 69.639,25.661C69.427,25.599 69.241,25.493 69.083,25.335C68.924,25.176 68.809,24.964 68.721,24.681C68.641,24.399 68.597,24.046 68.597,23.613L68.597,16.851L71.863,16.851L71.881,16.842ZM42.017,17.434L42.07,17.434L42.07,10.875L43.756,10.875L43.756,27.012L42.07,27.012L42.07,25.052L42.017,25.052C41.522,25.794 40.878,26.359 40.084,26.738C39.289,27.118 38.468,27.312 37.629,27.312C36.72,27.312 35.899,27.162 35.166,26.844C34.434,26.526 33.807,26.103 33.286,25.555C32.765,25.008 32.359,24.363 32.068,23.622C31.777,22.88 31.635,22.077 31.635,21.221C31.635,20.364 31.777,19.561 32.068,18.82C32.359,18.078 32.765,17.434 33.286,16.886C33.807,16.339 34.434,15.915 35.166,15.598C35.899,15.289 36.72,15.13 37.629,15.13C38.477,15.13 39.289,15.324 40.084,15.712C40.878,16.101 41.522,16.675 42.017,17.434ZM41.01,24.549C41.408,24.134 41.717,23.648 41.937,23.075L41.937,23.083C42.158,22.518 42.273,21.901 42.273,21.238C42.273,20.576 42.158,19.958 41.937,19.393C41.717,18.828 41.408,18.334 41.01,17.91C40.613,17.495 40.145,17.16 39.598,16.922C39.051,16.683 38.459,16.56 37.815,16.56C37.126,16.56 36.508,16.683 35.961,16.931C35.414,17.178 34.955,17.513 34.584,17.937C34.213,18.352 33.922,18.846 33.728,19.42C33.525,19.985 33.427,20.594 33.427,21.238C33.427,21.883 33.533,22.483 33.728,23.057C33.931,23.622 34.213,24.116 34.584,24.54C34.955,24.955 35.414,25.29 35.961,25.529C36.499,25.767 37.117,25.891 37.815,25.891C38.459,25.891 39.051,25.767 39.598,25.529C40.145,25.29 40.613,24.964 41.01,24.549ZM56.538,19.34L56.538,24.416L56.556,24.434C56.556,24.875 56.574,25.343 56.609,25.82C56.644,26.306 56.688,26.712 56.759,27.038L55.25,27.038C55.197,26.756 55.161,26.447 55.126,26.12C55.091,25.794 55.073,25.476 55.073,25.158L55.02,25.158C54.49,25.935 53.89,26.491 53.219,26.826C52.548,27.171 51.745,27.338 50.8,27.338C50.35,27.338 49.891,27.277 49.423,27.153C48.955,27.029 48.523,26.826 48.134,26.544C47.746,26.261 47.428,25.899 47.172,25.449C46.907,24.999 46.784,24.452 46.784,23.807C46.784,22.907 47.013,22.201 47.463,21.68C47.914,21.159 48.523,20.771 49.282,20.515C50.041,20.259 50.915,20.091 51.895,20.02C52.884,19.941 53.899,19.905 54.958,19.905L54.958,19.535C54.958,18.528 54.693,17.787 54.164,17.292C53.634,16.798 52.866,16.551 51.86,16.551C51.162,16.551 50.518,16.675 49.926,16.922C49.335,17.169 48.832,17.495 48.417,17.91L47.472,16.798C47.958,16.313 48.585,15.924 49.37,15.606C50.156,15.297 51.048,15.138 52.036,15.138C52.663,15.138 53.246,15.227 53.793,15.394C54.34,15.562 54.817,15.827 55.232,16.171C55.638,16.524 55.965,16.957 56.194,17.487C56.424,18.007 56.538,18.634 56.538,19.34ZM54.702,23.551C54.87,23.083 54.949,22.598 54.949,22.086L54.941,22.077L54.941,21.212L54.446,21.212C53.758,21.212 53.051,21.238 52.354,21.3C51.657,21.353 51.021,21.468 50.447,21.645C49.873,21.821 49.406,22.077 49.044,22.404C48.682,22.739 48.496,23.172 48.496,23.719C48.496,24.134 48.576,24.478 48.735,24.761C48.894,25.043 49.105,25.264 49.37,25.44C49.635,25.617 49.926,25.732 50.253,25.811C50.58,25.891 50.906,25.926 51.233,25.926C51.833,25.926 52.363,25.82 52.822,25.617C53.281,25.414 53.669,25.131 53.987,24.778C54.296,24.425 54.535,24.01 54.702,23.551ZM82.13,25.511L82.21,25.511L82.21,27.021L84.981,27.021L84.981,19.782C84.981,19.19 84.902,18.59 84.743,17.999C84.584,17.407 84.311,16.869 83.913,16.392C83.516,15.915 82.978,15.527 82.289,15.227C81.6,14.935 80.735,14.785 79.676,14.785C78.767,14.785 77.866,14.935 76.984,15.253C76.101,15.571 75.324,16.039 74.644,16.666L76.18,18.475C76.56,18.105 77.036,17.778 77.619,17.513C78.202,17.248 78.802,17.116 79.429,17.116C80.17,17.116 80.806,17.292 81.344,17.646C81.883,18.007 82.148,18.555 82.148,19.296L82.148,19.596C81.23,19.596 80.285,19.641 79.314,19.729C78.343,19.817 77.469,20.003 76.675,20.285C75.88,20.568 75.236,20.974 74.732,21.503C74.229,22.033 73.973,22.739 73.973,23.631C73.973,24.328 74.114,24.911 74.406,25.379C74.697,25.847 75.059,26.226 75.5,26.517C75.942,26.809 76.419,27.012 76.939,27.135C77.46,27.259 77.963,27.321 78.44,27.321C79.279,27.321 80.029,27.144 80.691,26.809C81.353,26.473 81.83,26.041 82.13,25.511ZM81.477,21.6L82.148,21.6L82.148,22.006C82.148,22.951 81.883,23.693 81.353,24.24C80.824,24.787 80.047,25.061 79.023,25.061C78.776,25.061 78.528,25.043 78.281,24.99C78.034,24.937 77.813,24.858 77.61,24.743C77.407,24.628 77.248,24.478 77.125,24.284C77.001,24.09 76.939,23.86 76.939,23.578C76.939,23.136 77.089,22.783 77.39,22.527C77.681,22.271 78.052,22.077 78.502,21.936C78.952,21.795 79.438,21.706 79.967,21.662C80.497,21.618 81,21.6 81.477,21.6ZM95.954,18.422C95.725,18.096 95.372,17.813 94.913,17.593C94.454,17.372 93.977,17.257 93.5,17.257C92.953,17.257 92.476,17.372 92.061,17.593C91.646,17.813 91.302,18.105 91.037,18.475C90.764,18.837 90.561,19.252 90.428,19.702C90.296,20.153 90.234,20.612 90.234,21.08C90.234,21.547 90.305,21.998 90.446,22.457C90.587,22.907 90.799,23.322 91.081,23.684C91.364,24.046 91.717,24.337 92.132,24.566C92.556,24.787 93.041,24.902 93.606,24.902C94.065,24.902 94.533,24.814 94.992,24.628C95.451,24.443 95.822,24.187 96.104,23.834L97.958,25.714C97.464,26.244 96.828,26.65 96.06,26.941C95.292,27.232 94.462,27.374 93.571,27.374C92.679,27.374 91.867,27.232 91.081,26.95C90.296,26.667 89.607,26.253 89.025,25.714C88.442,25.167 87.974,24.505 87.639,23.728C87.303,22.951 87.127,22.068 87.127,21.08C87.127,20.091 87.294,19.252 87.639,18.475C87.974,17.699 88.433,17.036 89.016,16.489C89.589,15.942 90.269,15.527 91.037,15.227C91.805,14.927 92.626,14.785 93.5,14.785C94.374,14.785 95.222,14.953 96.043,15.28C96.864,15.606 97.508,16.065 97.985,16.639L95.954,18.422ZM106.618,25.511L106.698,25.511L106.698,27.021L109.47,27.021L109.47,19.782C109.47,19.19 109.39,18.59 109.231,17.999C109.072,17.407 108.799,16.869 108.401,16.392C108.004,15.915 107.466,15.527 106.777,15.227C106.089,14.935 105.223,14.785 104.164,14.785C103.255,14.785 102.354,14.935 101.472,15.253C100.589,15.571 99.812,16.039 99.132,16.666L100.668,18.475C101.048,18.105 101.525,17.778 102.107,17.513C102.69,17.248 103.29,17.116 103.917,17.116C104.658,17.116 105.294,17.292 105.833,17.646C106.371,18.007 106.636,18.555 106.636,19.296L106.636,19.596C105.718,19.596 104.773,19.641 103.802,19.729C102.831,19.817 101.957,20.003 101.163,20.285C100.368,20.568 99.724,20.974 99.221,21.503C98.717,22.033 98.461,22.739 98.461,23.631C98.461,24.328 98.603,24.911 98.894,25.379C99.185,25.847 99.547,26.226 99.989,26.517C100.43,26.809 100.907,27.012 101.427,27.135C101.948,27.259 102.451,27.321 102.928,27.321C103.767,27.321 104.517,27.144 105.179,26.809C105.841,26.473 106.318,26.041 106.618,25.511ZM105.965,21.6L106.636,21.6L106.636,22.006C106.636,22.951 106.371,23.693 105.841,24.24C105.312,24.787 104.535,25.061 103.511,25.061C103.264,25.061 103.016,25.043 102.769,24.99C102.522,24.937 102.301,24.858 102.098,24.743C101.895,24.628 101.736,24.478 101.613,24.284C101.489,24.09 101.427,23.86 101.427,23.578C101.427,23.136 101.578,22.783 101.878,22.527C102.169,22.271 102.54,22.077 102.99,21.936C103.44,21.795 103.926,21.706 104.455,21.662C104.985,21.618 105.488,21.6 105.965,21.6ZM124.415,27.021L121.572,27.021L121.572,25.237L121.519,25.237C121.104,25.935 120.531,26.456 119.798,26.826C119.065,27.197 118.271,27.374 117.432,27.374C116.523,27.374 115.711,27.206 114.996,26.862C114.281,26.526 113.663,26.067 113.16,25.502C112.656,24.928 112.268,24.266 111.994,23.498C111.721,22.73 111.588,21.909 111.588,21.035C111.588,20.161 111.729,19.34 112.012,18.581C112.294,17.822 112.692,17.16 113.204,16.595C113.716,16.03 114.325,15.589 115.04,15.271C115.746,14.953 116.523,14.785 117.37,14.785C117.918,14.785 118.403,14.847 118.836,14.971C119.268,15.094 119.639,15.244 119.966,15.43C120.292,15.615 120.566,15.809 120.796,16.021C121.025,16.233 121.219,16.445 121.369,16.639L121.44,16.639L121.44,10.875L124.415,10.875L124.415,27.021ZM114.607,21.027C114.607,21.486 114.678,21.953 114.819,22.413C114.96,22.872 115.172,23.286 115.455,23.648C115.737,24.01 116.09,24.31 116.523,24.54C116.955,24.77 117.459,24.884 118.032,24.884C118.58,24.884 119.065,24.77 119.498,24.549C119.93,24.328 120.292,24.037 120.601,23.666C120.91,23.304 121.14,22.889 121.299,22.439C121.458,21.989 121.537,21.53 121.537,21.062C121.537,20.594 121.458,20.135 121.299,19.676C121.14,19.217 120.91,18.802 120.601,18.44C120.292,18.078 119.93,17.778 119.498,17.548C119.065,17.319 118.58,17.204 118.032,17.204C117.45,17.204 116.947,17.319 116.523,17.54C116.09,17.76 115.737,18.06 115.455,18.422C115.172,18.784 114.96,19.199 114.819,19.649C114.678,20.108 114.607,20.559 114.607,21.027ZM138.742,21.618L138.742,21.23C138.742,20.153 138.601,19.217 138.31,18.414C138.018,17.619 137.621,16.948 137.109,16.41C136.597,15.871 135.988,15.465 135.291,15.191C134.584,14.918 133.825,14.785 132.995,14.785C132.104,14.785 131.274,14.935 130.506,15.244C129.738,15.553 129.067,15.986 128.511,16.533C127.955,17.081 127.513,17.751 127.187,18.537C126.86,19.323 126.701,20.179 126.701,21.15C126.701,22.121 126.86,22.995 127.187,23.763C127.513,24.531 127.955,25.176 128.529,25.705C129.102,26.235 129.773,26.641 130.55,26.932C131.327,27.224 132.174,27.365 133.101,27.365C135.326,27.365 137.03,26.579 138.204,24.99L136.218,23.401C135.891,23.887 135.467,24.258 134.955,24.531C134.443,24.805 133.816,24.937 133.075,24.937C132.651,24.937 132.236,24.867 131.839,24.717C131.442,24.566 131.089,24.363 130.771,24.107C130.453,23.851 130.197,23.542 130.012,23.189C129.817,22.836 129.712,22.448 129.676,22.015L138.716,22.015C138.742,21.883 138.742,21.75 138.742,21.618ZM135.608,18.784C135.714,19.137 135.767,19.499 135.767,19.879L135.75,19.87L129.659,19.87C129.729,19.032 130.073,18.343 130.691,17.804C131.309,17.266 132.069,17.001 132.96,17.001C133.437,17.001 133.852,17.089 134.214,17.239C134.576,17.39 134.867,17.601 135.096,17.866C135.335,18.131 135.502,18.431 135.608,18.784ZM155.197,14.785C155.974,14.785 156.636,14.918 157.192,15.191C157.748,15.465 158.199,15.827 158.552,16.268C158.905,16.719 159.17,17.231 159.329,17.804C159.496,18.387 159.576,18.979 159.576,19.588L159.576,27.021L156.601,27.021L156.601,20.426C156.601,20.082 156.574,19.72 156.53,19.332C156.477,18.952 156.371,18.608 156.212,18.299C156.045,17.99 155.824,17.743 155.533,17.54C155.241,17.345 154.862,17.239 154.376,17.239C153.891,17.239 153.52,17.337 153.184,17.54C152.858,17.734 152.584,17.99 152.363,18.308C152.143,18.625 151.993,18.97 151.896,19.358C151.798,19.747 151.746,20.135 151.746,20.515L151.746,27.003L148.771,27.003L148.771,19.817C148.771,19.076 148.594,18.458 148.241,17.972C147.888,17.487 147.332,17.239 146.572,17.239C146.131,17.239 145.743,17.337 145.407,17.522C145.081,17.716 144.807,17.955 144.604,18.255C144.401,18.555 144.242,18.899 144.136,19.288C144.03,19.676 143.977,20.064 143.977,20.462L143.977,27.003L141.002,27.003L141.002,15.112L143.827,15.112L143.827,17.019L143.88,17.019C144.012,16.719 144.189,16.445 144.41,16.18C144.63,15.915 144.895,15.677 145.204,15.465C145.513,15.253 145.857,15.077 146.255,14.953C146.652,14.83 147.084,14.768 147.57,14.768C148.497,14.768 149.265,14.971 149.874,15.386C150.483,15.801 150.96,16.348 151.286,17.019C151.684,16.295 152.213,15.739 152.875,15.35C153.538,14.962 154.314,14.768 155.206,14.768L155.197,14.785ZM160.656,15.13L160.653,15.13L160.653,15.121L160.656,15.13ZM160.656,15.13L165.755,27.012L165.164,28.521C165.031,28.839 164.908,29.113 164.793,29.342C164.678,29.572 164.546,29.766 164.396,29.925C164.246,30.084 164.06,30.199 163.848,30.269C163.628,30.349 163.363,30.384 163.054,30.384C162.895,30.384 162.71,30.375 162.524,30.349C162.33,30.331 162.136,30.278 161.942,30.216L161.694,32.794C161.959,32.856 162.215,32.9 162.471,32.926C162.727,32.953 162.983,32.962 163.23,32.962C163.892,32.962 164.457,32.891 164.925,32.741C165.393,32.6 165.808,32.379 166.152,32.088C166.497,31.796 166.797,31.443 167.044,31.02C167.291,30.605 167.529,30.119 167.741,29.572L173.365,15.13L170.266,15.13L167.318,23.781L167.265,23.781L163.945,15.13L160.656,15.13Z" style="fill:#8c8b9c;"/>
        </g>
    </g>
</svg>
