<svg xmlns="http://www.w3.org/2000/svg" version="1.1"
    xmlns:xlink="http://www.w3.org/1999/xlink"
    xmlns:svgjs="http://svgjs.dev/svgjs" viewBox="0 0 800 800" opacity="0.1">
    <defs>
        <filter id="bbburst-blur-1" x="-100%" y="-100%" width="400%" height="400%">
            <feGaussianBlur in="SourceGraphic" stdDeviation="1"></feGaussianBlur>
        </filter>
        <filter id="bbburst-blur-2" x="-100%" y="-100%" width="400%" height="400%">
            <feGaussianBlur in="SourceGraphic" stdDeviation="2"></feGaussianBlur>
        </filter>
        <filter id="bbburst-blur-3" x="-100%" y="-100%" width="400%" height="400%">
            <feGaussianBlur in="SourceGraphic" stdDeviation="4"></feGaussianBlur>
        </filter>
        <filter id="bbburst-blur-4" x="-100%" y="-100%" width="400%" height="400%">
            <feGaussianBlur in="SourceGraphic" stdDeviation="12"></feGaussianBlur>
        </filter>
        <symbol id="bbburst-shape-2" viewBox="0 0 126 115">
            <path d="m63 0 62.77 43.877-23.976 70.996H24.206L.23 43.877 63 0Z"></path>
        </symbol>
        <symbol id="bbburst-shape-3" viewBox="0 0 131 127">
            <path d="m66 0 66 63.5L66 127 0 63.5 66 0Z"></path>
        </symbol>
        <symbol id="bbburst-shape-6" viewBox="0 0 133 116">
            <path d="M59.7487 10.2513c-13.6683-13.66839-35.8291-13.66839-49.4974 0-13.66839 13.6683-13.66839 35.8291 0 49.4974l49.4974-49.4974ZM66.5 66.5 41.7513 91.2487 66.5 115.997l24.7487-24.7483L66.5 66.5Zm56.249-6.7513c13.668-13.6683 13.668-35.8291 0-49.4974-13.669-13.66839-35.8294-13.66839-49.4977 0l49.4977 49.4974Zm-112.4977 0 31.5 31.5 49.4974-49.4974-31.5-31.5-49.4974 49.4974Zm80.9974 31.5 31.5003-31.5-49.4977-49.4974-31.5 31.5 49.4974 49.4974Z"></path>
        </symbol>
        <symbol id="bbburst-shape-9" viewBox="0 0 182 172">
            <path d="M13.5809 69.845 91 13.5967l77.419 56.2483-29.571 91.012H43.1524L13.5809 69.845Z" stroke-width="22"></path>
        </symbol>
        <symbol id="bbburst-shape-10" viewBox="0 0 145 145">
            <circle cx="72.5" cy="72.5" r="61.5" fill="none" stroke-width="22"></circle>
        </symbol>
        <symbol id="bbburst-shape-13" viewBox="0 0 159 159">
            <path stroke-width="22" d="M11 11h137v137H11z"></path>
        </symbol>
        <symbol id="bbburst-shape-14" viewBox="0 0 185 109">
            <path d="M168 16.5C168 58.1975 134.197 92 92.5 92 50.8025 92 17 58.1975 17 16.5" stroke-width="33" stroke-linecap="round"></path>
        </symbol>
    </defs>
    <use xlink:href="#bbburst-shape-14" width="11.485296164869279" opacity="0.8499413348534531" transform="matrix(0.9917892893092949,-0.12788278074613435,0.12788278074613435,0.9917892893092949,601.255208067359,355.2230607839734)" fill="none" stroke="#ffa6d5"></use>
    <use xlink:href="#bbburst-shape-3" width="21.98306300326147" opacity="0.5351166335598254" transform="matrix(0.8053018931555872,-0.5928649600710326,0.5928649600710326,0.8053018931555872,441.5722602184636,33.345531437258956)" fill="#00a19d" filter="url(#bbburst-blur-1)"></use>
    <use xlink:href="#bbburst-shape-6" width="23.006880169897318" opacity="0.5488088582727144" transform="matrix(0.7709419937302102,-0.6369053636948652,0.6369053636948652,0.7709419937302102,87.05999477084043,457.7870298698428)" fill="#2c2891" filter="url(#bbburst-blur-1)"></use>
    <use xlink:href="#bbburst-shape-10" width="31.547870969380593" opacity="0.21846413746203275" transform="matrix(0.8818460274525041,0.4715374681467396,-0.4715374681467396,0.8818460274525041,777.5246894288839,-316.42922793672125)" fill="none" stroke="#ffa6d5" filter="url(#bbburst-blur-3)"></use>
    <use xlink:href="#bbburst-shape-3" width="37.01405009379001" opacity="0.36687758411199867" transform="matrix(0.7919948864980061,-0.6105277223525649,0.6105277223525649,0.7919948864980061,243.45768202801247,-64.25155506457699)" fill="#00a19d" filter="url(#bbburst-blur-2)"></use>
    <use xlink:href="#bbburst-shape-6" width="48.236704619451544" opacity="0.3251390808662157" transform="matrix(0.8912345661049702,0.4535426641228865,-0.4535426641228865,0.8912345661049702,452.37305988435264,-12.21471322821759)" fill="#00a19d" filter="url(#bbburst-blur-2)"></use>
    <use xlink:href="#bbburst-shape-14" width="6.714798888026327" opacity="0.9654597419699843" transform="matrix(0.8949445934658662,0.4461772905765324,-0.4461772905765324,0.8949445934658662,950.5481375057608,416.60907564257076)" fill="none" stroke="#ffa6d5"></use>
    <use xlink:href="#bbburst-shape-10" width="23.531923723016746" opacity="0.6659801034921304" transform="matrix(0.8610551224832173,0.5085116282302813,-0.5085116282302813,0.8610551224832173,683.8186295843989,323.8690873359452)" fill="none" stroke="#2c2891"></use>
    <use xlink:href="#bbburst-shape-13" width="17.925891646534474" opacity="0.7780518563588366" transform="matrix(0.9565278683330672,-0.2916409386595071,0.2916409386595071,0.9565278683330672,653.0665593234326,199.118399144764)" fill="none" stroke="#ffa6d5"></use>
    <use xlink:href="#bbburst-shape-13" width="22.087400020854002" opacity="0.722587324550481" transform="matrix(0.8646955678565806,0.5022963019266473,-0.5022963019266473,0.8646955678565806,735.3629523723159,341.7164604963253)" fill="none" stroke="#00a19d"></use>
    <use xlink:href="#bbburst-shape-2" width="25.132279878569143" opacity="0.49624628802941073" transform="matrix(0.9647573512091898,0.26314112808116485,-0.26314112808116485,0.9647573512091898,391.0975784369259,369.19229267623706)" fill="#ffbd9b" filter="url(#bbburst-blur-1)"></use>
    <use xlink:href="#bbburst-shape-3" width="17.158485469590573" opacity="0.8162221288689635" transform="matrix(0.9976052918155115,0.0691641651557236,-0.0691641651557236,0.9976052918155115,643.5365678442957,345.84135395603414)" fill="#2c2891"></use>
    <use xlink:href="#bbburst-shape-9" width="26.675424143618315" opacity="0.546091991373771" transform="matrix(0.8240074191138782,-0.5665790088286765,0.5665790088286765,0.8240074191138782,147.2068418680511,294.0941580747337)" fill="none" stroke="#ff5c58" filter="url(#bbburst-blur-1)"></use>
    <use xlink:href="#bbburst-shape-2" width="23.222420014110405" opacity="0.664063152062313" transform="matrix(0.8962223156942069,-0.4436051857809074,0.4436051857809074,0.8962223156942069,397.39317306666965,188.3506387575821)" fill="#ffbd9b"></use>
    <use xlink:href="#bbburst-shape-10" width="9.340091602732075" opacity="0.9310280394190624" transform="matrix(0.9690930146514269,-0.24669562005396287,0.24669562005396287,0.9690930146514269,684.7161266299083,345.6090055455193)" fill="none" stroke="#ff5c58"></use>
    <use xlink:href="#bbburst-shape-3" width="24.804616735076046" opacity="0.715660363507796" transform="matrix(0.794522011051781,0.6072353530174552,-0.6072353530174552,0.794522011051781,894.2711140281584,226.3828714743732)" fill="#ffa6d5"></use>
    <use xlink:href="#bbburst-shape-13" width="11.428316461677914" opacity="0.71012136675543" transform="matrix(0.9976518764031749,-0.06848892982974876,0.06848892982974876,0.9976518764031749,477.86430497950664,379.28853910816895)" fill="none" stroke="#00a19d"></use>
    <use xlink:href="#bbburst-shape-3" width="8.69608309273152" opacity="0.9262436678381921" transform="matrix(0.8335136163092558,0.5524989153175477,-0.5524989153175477,0.8335136163092558,950.4599179742976,433.09315513850385)" fill="#00a19d"></use>
    <use xlink:href="#bbburst-shape-9" width="30.1495740271832" opacity="0.4758886919139521" transform="matrix(0.9192127690708903,0.3937612032400172,-0.3937612032400172,0.9192127690708903,630.0391666755279,6.32049227019661)" fill="none" stroke="#ff5c58" filter="url(#bbburst-blur-1)"></use>
    <use xlink:href="#bbburst-shape-13" width="23.891910580147908" opacity="0.6314095578193145" transform="matrix(0.9302922106647514,-0.36681930534868223,0.36681930534868223,0.9302922106647514,504.9407423279197,90.16857141851784)" fill="none" stroke="#00a19d" filter="url(#bbburst-blur-1)"></use>
    <use xlink:href="#bbburst-shape-2" width="8.227786492088548" opacity="0.9866560852654991" transform="matrix(0.9594250980158842,0.2819636169742667,-0.2819636169742667,0.9594250980158842,899.0973837452214,405.95288709857743)" fill="#ff5c58"></use>
    <use xlink:href="#bbburst-shape-14" width="36.753626259951645" opacity="0.5174859445472215" transform="matrix(0.8477561686691321,-0.5303861597774154,0.5303861597774154,0.8477561686691321,222.8512123526241,137.95476390590255)" fill="none" stroke="#ffbd9b" filter="url(#bbburst-blur-1)"></use>
    <use xlink:href="#bbburst-shape-3" width="34.403114718388714" opacity="0.46225829439028343" transform="matrix(0.9828990636686472,-0.18414513471524746,0.18414513471524746,0.9828990636686472,521.4199633592124,-93.81820753721337)" fill="#ffbd9b" filter="url(#bbburst-blur-1)"></use>
    <use xlink:href="#bbburst-shape-14" width="62.27923794152322" opacity="0.22177799306876844" transform="matrix(0.8983440220805142,0.4392926336648552,-0.4392926336648552,0.8983440220805142,324.7275301086427,-39.339632452680746)" fill="none" stroke="#2c2891" filter="url(#bbburst-blur-3)"></use>
    <use xlink:href="#bbburst-shape-6" width="11.192414022553859" opacity="0.8784430557792672" transform="matrix(0.9555064210309346,0.29497030251985407,-0.29497030251985407,0.9555064210309346,799.3139372697254,372.17986162632695)" fill="#ffbd9b"></use>
    <use xlink:href="#bbburst-shape-14" width="12.763844671878047" opacity="0.8242494734546169" transform="matrix(0.7669342652780525,-0.6417256678226404,0.6417256678226404,0.7669342652780525,383.80551581811295,413.7846285087378)" fill="none" stroke="#ffa6d5"></use>
    <use xlink:href="#bbburst-shape-13" width="12.404817908740124" opacity="0.8798443154276449" transform="matrix(0.9341220842972506,0.35695368274912115,-0.35695368274912115,0.9341220842972506,922.5190608437713,304.85581588369814)" fill="none" stroke="#ffa6d5"></use>
    <use xlink:href="#bbburst-shape-13" width="14.377174323509356" opacity="0.8319294913742383" transform="matrix(0.9320510974071085,-0.36232685771579887,0.36232685771579887,0.9320510974071085,525.1750153184511,315.45610400556103)" fill="none" stroke="#2c2891"></use>
    <use xlink:href="#bbburst-shape-10" width="21.631170649369334" opacity="0.6007185208902253" transform="matrix(0.9824633769905011,0.18645565926627275,-0.18645565926627275,0.9824633769905011,838.4208058182621,6.533922438871684)" fill="none" stroke="#ffa6d5" filter="url(#bbburst-blur-1)"></use>
    <use xlink:href="#bbburst-shape-13" width="17.255584210749877" opacity="0.7337896267536356" transform="matrix(0.7975958672640242,0.603192201974917,-0.603192201974917,0.7975958672640242,868.1320608166509,267.85247562081435)" fill="none" stroke="#2c2891"></use>
    <use xlink:href="#bbburst-shape-14" width="7.907286766264871" opacity="0.9445045666202485" transform="matrix(0.9716301129887959,0.23650565222290085,-0.23650565222290085,0.9716301129887959,856.4477539796585,366.805241782665)" fill="none" stroke="#ffbd9b"></use>
    <use xlink:href="#bbburst-shape-13" width="51.77615517357422" opacity="0.14359572037072965" transform="matrix(0.8784078199613481,-0.4779118138639721,0.4779118138639721,0.8784078199613481,-156.12865075180383,33.771000291863686)" fill="none" stroke="#ffa6d5" filter="url(#bbburst-blur-3)"></use>
    <use xlink:href="#bbburst-shape-2" width="30.426791856963714" opacity="0.41028236264712603" transform="matrix(0.9275623778316088,-0.3736683492502032,0.3736683492502032,0.9275623778316088,578.880935475164,-152.22913895150228)" fill="#2c2891" filter="url(#bbburst-blur-2)"></use>
    <use xlink:href="#bbburst-shape-14" width="15.304637216683302" opacity="0.7601131129004901" transform="matrix(0.7195612867936619,-0.6944289413236242,0.6944289413236242,0.7195612867936619,340.1346671530124,355.15435680707935)" fill="none" stroke="#ffa6d5"></use>
    <use xlink:href="#bbburst-shape-9" width="20.29467284844808" opacity="0.7046992155407601" transform="matrix(0.9607699540455623,-0.27734652585400815,0.27734652585400815,0.9607699540455623,658.4453352024572,123.80961202310039)" fill="none" stroke="#ffbd9b"></use>
    <use xlink:href="#bbburst-shape-3" width="13.58331451924331" opacity="0.8926331062538494" transform="matrix(0.8044033783710098,-0.5940834999099924,0.5940834999099924,0.8044033783710098,470.5438134394138,418.45382499149775)" fill="#ffa6d5"></use>
    <use xlink:href="#bbburst-shape-13" width="35.23353368031507" opacity="0.31113490557975576" transform="matrix(0.8863609931976779,-0.46299480530306814,0.46299480530306814,0.8863609931976779,462.1696172197427,-221.48887325659456)" fill="none" stroke="#2c2891" filter="url(#bbburst-blur-2)"></use>
    <use xlink:href="#bbburst-shape-2" width="26.95710634366744" opacity="0.5076040308910184" transform="matrix(0.9988840859283947,-0.04722904698377241,0.04722904698377241,0.9988840859283947,293.16307977884486,269.4902369315058)" fill="#00a19d" filter="url(#bbburst-blur-1)"></use>
    <use xlink:href="#bbburst-shape-14" width="9.94437279023803" opacity="0.8977536880894413" transform="matrix(0.8502409741750967,-0.5263936605182309,0.5263936605182309,0.8502409741750967,522.9116353782476,381.46622279267115)" fill="none" stroke="#2c2891"></use>
    <use xlink:href="#bbburst-shape-14" width="23.159341685304256" opacity="0.427604959978377" transform="matrix(0.999213090184287,0.03966359041196466,-0.03966359041196466,0.999213090184287,232.89235608649983,366.1727257216393)" fill="none" stroke="#00a19d" filter="url(#bbburst-blur-2)"></use>
    <use xlink:href="#bbburst-shape-6" width="67.0487071590449" opacity="0.17961906886381895" transform="matrix(0.8351270566275697,-0.5500570872996474,0.5500570872996474,0.8351270566275697,-9.182882204644358,-114.04161154092006)" fill="#2c2891" filter="url(#bbburst-blur-3)"></use>
    <use xlink:href="#bbburst-shape-6" width="35.2855890331926" opacity="0.4695382925132786" transform="matrix(0.9752172774757738,-0.2212493202537346,0.2212493202537346,0.9752172774757738,589.0176476754687,-106.09300600050005)" fill="#ffa6d5" filter="url(#bbburst-blur-1)"></use>
    <use xlink:href="#bbburst-shape-2" width="15.416615062563205" opacity="0.6746331520317902" transform="matrix(0.9502612372469357,0.3114539789213217,-0.3114539789213217,0.9502612372469357,592.8606304618307,392.35553098746703)" fill="#ff5c58"></use>
    <use xlink:href="#bbburst-shape-13" width="42.941653569988716" opacity="0.28951711506042843" transform="matrix(0.988971759901319,-0.1481042137067271,0.1481042137067271,0.988971759901319,458.6957366615971,-253.28275963337404)" fill="none" stroke="#2c2891" filter="url(#bbburst-blur-2)"></use>
    <use xlink:href="#bbburst-shape-3" width="18.333209739764378" opacity="0.5804262336205657" transform="matrix(0.9649622370546749,-0.2623887975094161,0.2623887975094161,0.9649622370546749,615.5397557121851,2.8459491065431166)" fill="#2c2891" filter="url(#bbburst-blur-1)"></use>
    <use xlink:href="#bbburst-shape-9" width="12.725335625512665" opacity="0.7747642144238717" transform="matrix(0.958802361841903,0.2840739884719973,-0.2840739884719973,0.958802361841903,682.9608258815083,397.5800789616729)" fill="none" stroke="#2c2891"></use>
    <use xlink:href="#bbburst-shape-6" width="28.909295222968662" opacity="0.5507972222717021" transform="matrix(0.9768146963142149,0.2140865457345888,-0.2140865457345888,0.9768146963142149,706.2672709734609,-11.523729347243489)" fill="#ff5c58" filter="url(#bbburst-blur-1)"></use>
    <use xlink:href="#bbburst-shape-3" width="28.712060217848784" opacity="0.5496159799965538" transform="matrix(0.9994797991385286,-0.03225106376550502,0.03225106376550502,0.9994797991385286,400.1226810494626,147.54317677832444)" fill="#ff5c58" filter="url(#bbburst-blur-1)"></use>
    <use xlink:href="#bbburst-shape-10" width="20.105592295298315" opacity="0.5958449937815442" transform="matrix(0.9998586858140078,-0.016810960778171645,0.016810960778171645,0.9998586858140078,379.91021561675336,374.16656571197234)" fill="none" stroke="#00a19d" filter="url(#bbburst-blur-1)"></use>
    <use xlink:href="#bbburst-shape-10" width="28.197425878939242" opacity="0.6074997886662898" transform="matrix(0.8959927670064788,-0.44406864499993,0.44406864499993,0.8959927670064788,239.82425065622667,316.64402121018014)" fill="none" stroke="#ffbd9b" filter="url(#bbburst-blur-1)"></use>
    <use xlink:href="#bbburst-shape-10" width="29.42707560504857" opacity="0.6119605836515511" transform="matrix(0.9882454343824164,0.15287564038233503,-0.15287564038233503,0.9882454343824164,505.4943182744932,217.4797456875607)" fill="none" stroke="#2c2891" filter="url(#bbburst-blur-1)"></use>
    <use xlink:href="#bbburst-shape-14" width="22.788380158457944" opacity="0.6397176888600024" transform="matrix(0.948183967195936,-0.31772183486908206,0.31772183486908206,0.948183967195936,374.50572928472775,207.38972188390818)" fill="none" stroke="#ffa6d5" filter="url(#bbburst-blur-1)"></use>
    <use xlink:href="#bbburst-shape-9" width="15.892584484550653" opacity="0.7413796220914751" transform="matrix(0.7771925784430411,-0.6292628195063311,0.6292628195063311,0.7771925784430411,323.76873519306537,355.34226285752754)" fill="none" stroke="#2c2891"></use>
    <use xlink:href="#bbburst-shape-6" width="53.32303464834567" opacity="-0.012500264254291071" transform="matrix(0.9117143605714367,0.41082468855682985,-0.41082468855682985,0.9117143605714367,237.5580693823397,-304.81689630848274)" fill="#ffa6d5" filter="url(#bbburst-blur-3)"></use>
    <use xlink:href="#bbburst-shape-3" width="61.72643795536115" opacity="0.0678999359472352" transform="matrix(0.8896222317665088,-0.4566971477322539,0.4566971477322539,0.8896222317665088,-136.32056826942534,-126.25719565948265)" fill="#2c2891" filter="url(#bbburst-blur-3)"></use>
    <use xlink:href="#bbburst-shape-3" width="13.879361040769014" opacity="0.8785941168031167" transform="matrix(0.7177085656869879,-0.6963436039338098,0.6963436039338098,0.7177085656869879,468.16064484435384,406.3941368865398)" fill="#ffbd9b"></use>
    <use xlink:href="#bbburst-shape-2" width="31.006858680905967" opacity="0.5775540666837905" transform="matrix(0.8728790934283062,-0.4879365617124611,0.4879365617124611,0.8728790934283062,332.86446098699435,124.25391417409679)" fill="#2c2891" filter="url(#bbburst-blur-1)"></use>
    <use xlink:href="#bbburst-shape-13" width="7.288770406699084" opacity="0.9696362433562058" transform="matrix(0.9967427277463069,-0.08064697567083012,0.08064697567083012,0.9967427277463069,755.8018516349591,372.3914401815868)" fill="none" stroke="#00a19d"></use>
    <use xlink:href="#bbburst-shape-9" width="25.835160892768794" opacity="0.5784962133692431" transform="matrix(0.8246307910690029,-0.5656713342753992,0.5656713342753992,0.8246307910690029,151.85538222090597,384.3520226126898)" fill="none" stroke="#2c2891" filter="url(#bbburst-blur-1)"></use>
    <use xlink:href="#bbburst-shape-3" width="16.508691442045887" opacity="0.7420551254544934" transform="matrix(0.8464852810573444,0.5324121232215402,-0.5324121232215402,0.8464852810573444,749.0216737754652,433.8133132103461)" fill="#00a19d"></use>
    <use xlink:href="#bbburst-shape-6" width="15.216568209526725" opacity="0.7861223644024308" transform="matrix(0.8581385529018991,0.5134181765612069,-0.5134181765612069,0.8581385529018991,790.5271116423021,404.36034379556594)" fill="#2c2891"></use>
    <use xlink:href="#bbburst-shape-10" width="16.155884963354264" opacity="0.635350325904513" transform="matrix(0.8703995467318704,0.4923460460376976,-0.4923460460376976,0.8703995467318704,626.6947281553555,415.52176256237885)" fill="none" stroke="#2c2891" filter="url(#bbburst-blur-1)"></use>
    <use xlink:href="#bbburst-shape-10" width="14.398321995000956" opacity="0.7384216437193706" transform="matrix(0.9528047868921473,-0.303583659104718,0.303583659104718,0.9528047868921473,634.043476429308,162.2109995442488)" fill="none" stroke="#2c2891"></use>
    <use xlink:href="#bbburst-shape-3" width="19.835655454110736" opacity="0.7742539149930816" transform="matrix(0.9392654302213279,-0.3431915668998056,0.3431915668998056,0.9392654302213279,541.7344543612479,231.49351947812465)" fill="#00a19d"></use>
    <use xlink:href="#bbburst-shape-13" width="4.970834875770978" opacity="0.9668176608507141" transform="matrix(0.9998614299265433,0.01664695002840684,-0.01664695002840684,0.9998614299265433,771.7216839375988,393.0906392017721)" fill="none" stroke="#00a19d"></use>
    <use xlink:href="#bbburst-shape-3" width="15.129543674227355" opacity="0.8004519800953871" transform="matrix(0.758887028799544,-0.6512222950113119,0.6512222950113119,0.758887028799544,407.5916199755409,346.7824412778631)" fill="#ffa6d5"></use>
    <use xlink:href="#bbburst-shape-14" width="44.712276261127506" opacity="0.42314605349796086" transform="matrix(0.9093637675941804,0.41600184877824464,-0.41600184877824464,0.9093637675941804,541.7603796483826,15.531622496289344)" fill="none" stroke="#2c2891" filter="url(#bbburst-blur-2)"></use>
    <use xlink:href="#bbburst-shape-2" width="10.490061371145996" opacity="0.6396445229016877" transform="matrix(0.8965476228253878,-0.44294735579541067,0.44294735579541067,0.8965476228253878,604.131075179615,83.6251514549358)" fill="#ffa6d5" filter="url(#bbburst-blur-1)"></use>
    <use xlink:href="#bbburst-shape-14" width="7.925629002468883" opacity="0.9386956731567297" transform="matrix(0.906308481071831,0.42261677337425985,-0.42261677337425985,0.906308481071831,904.7810876045552,427.0124295418451)" fill="none" stroke="#ffa6d5"></use>
    <use xlink:href="#bbburst-shape-9" width="31.13701328215935" opacity="0.3560552761111567" transform="matrix(0.8790333263542052,0.4767603288431846,-0.4767603288431846,0.8790333263542052,336.7717240191498,372.8076273709903)" fill="none" stroke="#00a19d" filter="url(#bbburst-blur-2)"></use>
    <use xlink:href="#bbburst-shape-3" width="56.84669703210636" opacity="0.24093457484362146" transform="matrix(0.7668941577109122,-0.6417735978278247,0.6417735978278247,0.7668941577109122,112.67934103392298,-128.05498547882988)" fill="#ff5c58" filter="url(#bbburst-blur-3)"></use>
    <use xlink:href="#bbburst-shape-3" width="41.261756370141065" opacity="0.3357508288363259" transform="matrix(0.9930657094612665,-0.11756060859059649,0.11756060859059649,0.9930657094612665,690.5974096845619,-257.719206776382)" fill="#00a19d" filter="url(#bbburst-blur-2)"></use>
    <use xlink:href="#bbburst-shape-6" width="29.91783510835241" opacity="0.46346446968258237" transform="matrix(0.7298873800711199,-0.6835674161433652,0.6835674161433652,0.7298873800711199,256.4578174029146,48.49712470833782)" fill="#ffa6d5" filter="url(#bbburst-blur-1)"></use>
    <use xlink:href="#bbburst-shape-3" width="35.31505461346498" opacity="0.24205010436402252" transform="matrix(0.7341075172792325,0.6790332488723372,-0.6790332488723372,0.7341075172792325,997.8787150820428,-261.24218241202)" fill="#ffa6d5" filter="url(#bbburst-blur-3)"></use>
    <use xlink:href="#bbburst-shape-2" width="53.40495894250766" opacity="0.3570906242707145" transform="matrix(0.9200380693658894,-0.3918289817222392,0.3918289817222392,0.9200380693658894,68.29149622416506,110.25234195172033)" fill="#ffbd9b" filter="url(#bbburst-blur-2)"></use>
    <use xlink:href="#bbburst-shape-6" width="10.17130013189188" opacity="0.86605770651787" transform="matrix(0.9208440750033595,0.38993100611673237,-0.38993100611673237,0.9208440750033595,818.2545435827647,414.1134052934196)" fill="#00a19d"></use>
    <use xlink:href="#bbburst-shape-2" width="17.278331077266138" opacity="0.8600499988923078" transform="matrix(0.9996462312778713,0.026597223387949922,-0.026597223387949922,0.9996462312778713,685.1770738909768,322.8632689168233)" fill="#ffbd9b"></use>
    <use xlink:href="#bbburst-shape-2" width="10.718778390383097" opacity="0.9227563542143902" transform="matrix(0.7840900341813177,-0.6206470964223871,0.6206470964223871,0.7840900341813177,489.9130967386588,438.2604809047525)" fill="#2c2891"></use>
    <use xlink:href="#bbburst-shape-6" width="16.995706463240378" opacity="0.6777014781466105" transform="matrix(0.7959053633081073,-0.6054210540255349,0.6054210540255349,0.7959053633081073,478.12662572039653,172.84669647209108)" fill="#00a19d"></use>
    <use xlink:href="#bbburst-shape-3" width="18.613184289352944" opacity="0.793697628011393" transform="matrix(0.9864107556943396,-0.16429796423121612,0.16429796423121612,0.9864107556943396,556.6337093710162,287.7994407914518)" fill="#ffa6d5"></use>
    <use xlink:href="#bbburst-shape-14" width="24.720578970905947" opacity="0.7005703725994903" transform="matrix(0.8623098845948742,0.506380946452347,-0.506380946452347,0.8623098845948742,700.8223166612967,378.5234085289715)" fill="none" stroke="#ff5c58"></use>
    <use xlink:href="#bbburst-shape-2" width="9.119010901034946" opacity="0.9068583601280005" transform="matrix(0.9917119535783058,-0.12848113141586345,0.12848113141586345,0.9917119535783058,727.221856539793,312.30344668746096)" fill="#ff5c58"></use>
    <use xlink:href="#bbburst-shape-3" width="21.926022281182153" opacity="0.5411507436860523" transform="matrix(0.8793408230779102,0.4761929408009568,-0.4761929408009568,0.8793408230779102,946.5374271332655,-14.567688667869504)" fill="#2c2891" filter="url(#bbburst-blur-1)"></use>
    <use xlink:href="#bbburst-shape-13" width="9.127397622797874" opacity="0.890896802716987" transform="matrix(0.9999999558012441,0.00029731718723269003,-0.00029731718723269003,0.9999999558012441,687.30629374159,386.37235832795557)" fill="none" stroke="#00a19d"></use>
    <use xlink:href="#bbburst-shape-6" width="22.95457808251076" opacity="0.5619805700640081" transform="matrix(0.8127955905565994,-0.5825489919069028,0.5825489919069028,0.8127955905565994,342.4138335569389,100.07938163092797)" fill="#00a19d" filter="url(#bbburst-blur-1)"></use>
    <use xlink:href="#bbburst-shape-2" width="17.919443207273584" opacity="0.6178267251085494" transform="matrix(0.9998900579090011,0.014828084661698453,-0.014828084661698453,0.9998900579090011,704.3468225879151,29.141340262253948)" fill="#2c2891" filter="url(#bbburst-blur-1)"></use>
    <use xlink:href="#bbburst-shape-10" width="6.534083324566772" opacity="0.9506135080443594" transform="matrix(0.8231165323634134,0.5678724981455167,-0.5678724981455167,0.8231165323634134,1012.412435028527,421.00360010532324)" fill="none" stroke="#00a19d"></use>
    <use xlink:href="#bbburst-shape-9" width="23.69951288411582" opacity="0.6011126590369469" transform="matrix(0.794200027166305,0.6076564134846603,-0.6076564134846603,0.794200027166305,745.2782365918993,199.50029803839163)" fill="none" stroke="#00a19d" filter="url(#bbburst-blur-1)"></use>
    <use xlink:href="#bbburst-shape-6" width="31.62972178071871" opacity="0.3868758208942198" transform="matrix(0.846465063053318,-0.5324442665952394,0.5324442665952394,0.846465063053318,401.6997825073489,-118.68816465901276)" fill="#ffbd9b" filter="url(#bbburst-blur-2)"></use>
    <use xlink:href="#bbburst-shape-2" width="7.914974999607777" opacity="0.914978237315752" transform="matrix(0.9734855082084675,-0.2287486946587931,0.2287486946587931,0.9734855082084675,620.3606229660808,400.3709254727404)" fill="#ffa6d5"></use>
    <use xlink:href="#bbburst-shape-2" width="34.352931587818254" opacity="0.2730113123263552" transform="matrix(0.9284577305500381,0.3714380736837202,-0.3714380736837202,0.9284577305500381,206.56865970523438,385.37112018622406)" fill="#ff5c58" filter="url(#bbburst-blur-2)"></use>
    <use xlink:href="#bbburst-shape-3" width="21.912575484313855" opacity="0.7623201802899854" transform="matrix(0.9102090254362725,-0.4141491639667417,0.4141491639667417,0.9102090254362725,549.9051796571731,214.74901991553412)" fill="#ffbd9b"></use>
    <use xlink:href="#bbburst-shape-9" width="9.547673307835435" opacity="0.949289100739394" transform="matrix(0.7714809248451124,0.6362524519403678,-0.6362524519403678,0.7714809248451124,1005.2069305195771,466.241597040199)" fill="none" stroke="#00a19d"></use>
    <use xlink:href="#bbburst-shape-6" width="14.571812653100125" opacity="0.7480811649116346" transform="matrix(0.8550911739586974,0.5184776602882103,-0.5184776602882103,0.8550911739586974,757.2446587127092,391.194174271687)" fill="#00a19d"></use>
    <use xlink:href="#bbburst-shape-6" width="16.011142255324675" opacity="0.812854749006817" transform="matrix(0.8624103477866302,-0.5062098300414005,0.5062098300414005,0.8624103477866302,522.8171640414963,284.6545700126759)" fill="#2c2891"></use>
    <use xlink:href="#bbburst-shape-14" width="36.88458447677654" opacity="0.19612557425818955" transform="matrix(0.8732793768208744,-0.48721979641568874,0.48721979641568874,0.8732793768208744,-165.3453953141599,181.9939383030283)" fill="none" stroke="#2c2891" filter="url(#bbburst-blur-3)"></use>
    <use xlink:href="#bbburst-shape-10" width="33.670610973938174" opacity="0.45091648498386017" transform="matrix(0.7703331300483574,-0.6376416460284731,0.6376416460284731,0.7703331300483574,84.09480621772059,184.959637025426)" fill="none" stroke="#ffa6d5" filter="url(#bbburst-blur-1)"></use>
    <use xlink:href="#bbburst-shape-13" width="39.150876309942916" opacity="0.2655284501379409" transform="matrix(0.7085701507215832,-0.7056403768963287,0.7056403768963287,0.7085701507215832,-208.68284859007935,352.30587016390876)" fill="none" stroke="#ff5c58" filter="url(#bbburst-blur-2)"></use>
    <use xlink:href="#bbburst-shape-14" width="33.80350889498638" opacity="0.40039277258563877" transform="matrix(0.9050834816060576,-0.42523392541500876,0.42523392541500876,0.9050834816060576,57.31630961592535,223.98913205769225)" fill="none" stroke="#ff5c58" filter="url(#bbburst-blur-2)"></use>
    <use xlink:href="#bbburst-shape-10" width="29.766635053231724" opacity="0.35019425359378387" transform="matrix(0.9616032205120728,-0.27444352114927006,0.27444352114927006,0.9616032205120728,50.72479741387994,242.2710560786291)" fill="none" stroke="#2c2891" filter="url(#bbburst-blur-2)"></use>
    <use xlink:href="#bbburst-shape-2" width="11.686201434708448" opacity="0.850094030537812" transform="matrix(0.7768159914614585,0.6297276517747583,-0.6297276517747583,0.7768159914614585,1020.7391152385258,338.0731990225166)" fill="#ffa6d5"></use>
    <use xlink:href="#bbburst-shape-2" width="26.503456040251418" opacity="0.6479553238172382" transform="matrix(0.9997553642716822,0.022118128537380558,-0.022118128537380558,0.9997553642716822,618.1738100680881,95.75239502157308)" fill="#2c2891" filter="url(#bbburst-blur-1)"></use>
    <use xlink:href="#bbburst-shape-3" width="21.080044543888047" opacity="0.47962373997311836" transform="matrix(0.7283893089302631,-0.6851634948215599,0.6851634948215599,0.7283893089302631,487.48744682211344,-3.5481896874370022)" fill="#00a19d" filter="url(#bbburst-blur-1)"></use>
    <use xlink:href="#bbburst-shape-13" width="15.965619017504917" opacity="0.6592199696065801" transform="matrix(0.902220245539758,0.4312755830535492,-0.4312755830535492,0.902220245539758,929.352714240162,96.79119097780762)" fill="none" stroke="#2c2891"></use>
    <use xlink:href="#bbburst-shape-3" width="15.478051469748612" opacity="0.8094537960572814" transform="matrix(0.9089366713183723,0.41693420048333435,-0.41693420048333435,0.9089366713183723,769.8499686903274,416.73444738928185)" fill="#ffa6d5"></use>
    <use xlink:href="#bbburst-shape-6" width="36.58052042089767" opacity="0.2269225598071558" transform="matrix(0.9418375929086686,-0.3360683689132391,0.3360683689132391,0.9418375929086686,-117.19238255061614,321.71261201937324)" fill="#ffa6d5" filter="url(#bbburst-blur-3)"></use>
    <use xlink:href="#bbburst-shape-3" width="13.887262082648553" opacity="0.8388222306637274" transform="matrix(0.9801293199772996,-0.19835956271588318,0.19835956271588318,0.9801293199772996,553.6206424950253,391.41095598223745)" fill="#00a19d"></use>
    <use xlink:href="#bbburst-shape-2" width="22.183660965111997" opacity="0.7762649053169591" transform="matrix(0.7368526495202441,0.6760533802112052,-0.6760533802112052,0.7368526495202441,857.576230734123,407.38137236621463)" fill="#00a19d"></use>
    <use xlink:href="#bbburst-shape-14" width="42.36367206527367" opacity="0.27454615939406135" transform="matrix(0.7103259094910446,0.7038729305106998,-0.7038729305106998,0.7103259094910446,413.1417091637863,185.63650614670235)" fill="none" stroke="#2c2891" filter="url(#bbburst-blur-2)"></use>
    <use xlink:href="#bbburst-shape-10" width="32.01631191879266" opacity="0.4382070299569647" transform="matrix(0.7098853947710323,0.7043172057324566,-0.7043172057324566,0.7098853947710323,520.8341817873477,388.0255982428452)" fill="none" stroke="#ff5c58" filter="url(#bbburst-blur-2)"></use>
    <use xlink:href="#bbburst-shape-2" width="40.9358288822135" opacity="0.471399745050615" transform="matrix(0.9825376261983375,0.18606400271018544,-0.18606400271018544,0.9825376261983375,378.0541934168797,173.85561121819228)" fill="#ffbd9b" filter="url(#bbburst-blur-1)"></use>
    <use xlink:href="#bbburst-shape-10" width="42.3522238161173" opacity="0.1750118018160257" transform="matrix(0.8391127933150578,-0.5439574616594584,0.5439574616594584,0.8391127933150578,216.76515295365343,-272.17911628967016)" fill="none" stroke="#2c2891" filter="url(#bbburst-blur-3)"></use>
    <use xlink:href="#bbburst-shape-14" width="55.14191965093305" opacity="0.33277312843279105" transform="matrix(0.9996559315055495,0.026230108764015703,-0.026230108764015703,0.9996559315055495,367.29470774389074,-122.4690549104389)" fill="none" stroke="#ffbd9b" filter="url(#bbburst-blur-2)"></use>
    <use xlink:href="#bbburst-shape-6" width="19.6344947147893" opacity="0.7039099100277625" transform="matrix(0.8309730183252089,0.5563127203430568,-0.5563127203430568,0.8309730183252089,913.523508847222,183.761449364982)" fill="#ffa6d5"></use>
    <use xlink:href="#bbburst-shape-9" width="12.333996567178966" opacity="0.8666917710703012" transform="matrix(0.8276667429898312,0.5612198878769395,-0.5612198878769395,0.8276667429898312,931.9811022032414,364.78682541269217)" fill="none" stroke="#00a19d"></use>
    <use xlink:href="#bbburst-shape-3" width="15.640380435314649" opacity="0.8421059221895869" transform="matrix(0.8677264123911427,-0.49704212420960514,0.49704212420960514,0.8677264123911427,515.2762773808432,320.1564410676223)" fill="#ff5c58"></use>
    <use xlink:href="#bbburst-shape-9" width="15.589102130419786" opacity="0.8158077420029431" transform="matrix(0.9961763797548612,0.08736486947565746,-0.08736486947565746,0.9961763797548612,803.7912349636363,218.04385442891936)" fill="none" stroke="#2c2891"></use>
    <use xlink:href="#bbburst-shape-13" width="10.158556651902247" opacity="0.9039039182443005" transform="matrix(0.9251741683938679,-0.3795428278030227,0.3795428278030227,0.9251741683938679,554.404049463542,395.81254874153234)" fill="none" stroke="#ffa6d5"></use>
    <use xlink:href="#bbburst-shape-3" width="23.58130429798245" opacity="0.685760247145971" transform="matrix(0.9971832702632928,0.0750035032982109,-0.0750035032982109,0.9971832702632928,548.3233022760611,239.1831153555865)" fill="#2c2891"></use>
    <use xlink:href="#bbburst-shape-10" width="23.824023942808928" opacity="0.6478722345334915" transform="matrix(0.8991700585375798,-0.43759936680658634,0.43759936680658634,0.8991700585375798,271.10182975924533,366.5272626429552)" fill="none" stroke="#00a19d" filter="url(#bbburst-blur-1)"></use>
    <use xlink:href="#bbburst-shape-3" width="11.93058620827346" opacity="0.9188814513952148" transform="matrix(0.990923384554861,-0.13442784660307242,0.13442784660307242,0.990923384554861,702.6141643448756,332.59117563409575)" fill="#00a19d"></use>
    <use xlink:href="#bbburst-shape-3" width="54.67016740983601" opacity="0.09862271902499165" transform="matrix(0.9722945825857754,-0.2337589456563167,0.2337589456563167,0.9722945825857754,160.11982499174218,-319.0259427986011)" fill="#00a19d" filter="url(#bbburst-blur-3)"></use>
    <use xlink:href="#bbburst-shape-2" width="21.607427683469954" opacity="0.6997449458208858" transform="matrix(0.9169628376386987,0.3989726236091713,-0.3989726236091713,0.9169628376386987,725.0120156645145,229.7204904441159)" fill="#ff5c58"></use>
</svg>